<svg xmlns="http://www.w3.org/2000/svg" width="1600" height="500" viewBox="0 0 1600 500" role="img" aria-label="Fusion-like FreeCAD Workflow Profile banner"><defs><filter id="shadow" x="-20%" y="-20%" width="140%" height="140%"><feDropShadow dx="0" dy="5" stdDeviation="8" flood-color="#172033" flood-opacity="0.14"/></filter><marker id="arrow" markerWidth="10" markerHeight="10" refX="8" refY="3" orient="auto" markerUnits="strokeWidth"><path d="M0,0 L0,6 L9,3 z" fill="#3d7eff"/></marker><style>.t{font-family:Inter,Segoe UI,Arial,sans-serif;fill:#172033}.title{font-size:34px;font-weight:750}.h{font-size:23px;font-weight:700}.b{font-size:18px;font-weight:500}.s{font-size:15px;font-weight:500}.xs{font-size:13px;font-weight:500}.muted{fill:#607087}.card{fill:white;stroke:#d9e1ec;stroke-width:2;rx:16;filter:url(#shadow)}</style></defs><rect width="100%" height="100%" fill="#f7f9fc"/><rect x="0" y="0" width="1600" height="500" fill="#172033"/><circle cx="1420" cy="115" r="210" fill="#00a6a6" opacity="0.14"/><circle cx="1510" cy="420" r="260" fill="#3d7eff" opacity="0.13"/><text class="t title" x="90" y="145" fill="white" style="font-size:58px">Fusion-like FreeCAD Workflow Profile</text><text class="t b" x="94" y="202" fill="#cbd6e8" style="font-size:24px">Design · Sketch · Projection · Threads · Assembly · Drawings</text><rect x="94" y="250" width="244" height="54" rx="27" fill="#00a6a6"/><text class="t s" x="216" y="284" fill="white" text-anchor="middle">FreeCAD 1.1+</text><rect x="356" y="250" width="325" height="54" rx="27" fill="#f4a261"/><text class="t s" x="518" y="284" fill="#172033" text-anchor="middle">Public testing · v1.3.0</text><g transform="translate(900,100)"><rect x="0" y="0" width="210" height="210" rx="28" fill="#27324a" stroke="#41506d" stroke-width="2"/><path d="M45 150 L45 58 L96 33 L150 59 L150 151 L96 177 Z" fill="none" stroke="#00a6a6" stroke-width="9" stroke-linejoin="round"/><path d="M45 58 L96 86 L150 59 M96 86 L96 177" fill="none" stroke="#3d7eff" stroke-width="7"/><text class="t xs" x="105" y="198" fill="white" text-anchor="middle">DESIGN</text></g><g transform="translate(1130,100)"><rect x="0" y="0" width="210" height="210" rx="28" fill="#27324a" stroke="#41506d" stroke-width="2"/><circle cx="105" cy="100" r="52" fill="none" stroke="#f4a261" stroke-width="8"/><path d="M52 151 L158 49 M51 49 L51 151 L159 151" fill="none" stroke="#00a6a6" stroke-width="7"/><text class="t xs" x="105" y="198" fill="white" text-anchor="middle">SKETCH</text></g><g transform="translate(1360,100)"><rect x="0" y="0" width="170" height="210" rx="28" fill="#27324a" stroke="#41506d" stroke-width="2"/><circle cx="55" cy="90" r="32" fill="none" stroke="#3d7eff" stroke-width="8"/><circle cx="115" cy="90" r="32" fill="none" stroke="#00a6a6" stroke-width="8"/><path d="M82 90 L88 90" stroke="#f4a261" stroke-width="8"/><text class="t xs" x="85" y="198" fill="white" text-anchor="middle">ASSEMBLE</text></g><text class="t xs" x="94" y="438" fill="#93a3bd">Independent project. No Autodesk assets. Not affiliated with Autodesk or the FreeCAD project.</text></svg>